<?xml version="1.0" encoding="UTF-8" standalone="no"?>
<!-- Created with Inkscape (http://www.inkscape.org/) -->

<svg
   width="320mm"
   height="200mm"
   viewBox="0 0 320 200"
   version="1.1"
   id="svg5"
   inkscape:version="1.1.1 (3bf5ae0d25, 2021-09-20)"
   sodipodi:docname="desenho.svg"
   xmlns:inkscape="http://www.inkscape.org/namespaces/inkscape"
   xmlns:sodipodi="http://sodipodi.sourceforge.net/DTD/sodipodi-0.dtd"
   xmlns="http://www.w3.org/2000/svg"
   xmlns:svg="http://www.w3.org/2000/svg">
  <sodipodi:namedview
     id="namedview7"
     pagecolor="#ffffff"
     bordercolor="#666666"
     borderopacity="1.0"
     inkscape:pageshadow="2"
     inkscape:pageopacity="0.0"
     inkscape:pagecheckerboard="0"
     inkscape:document-units="mm"
     showgrid="false"
     width="211mm"
     units="mm"
     inkscape:zoom="0.50000001"
     inkscape:cx="495.99999"
     inkscape:cy="350.99999"
     inkscape:window-width="1366"
     inkscape:window-height="705"
     inkscape:window-x="-8"
     inkscape:window-y="-8"
     inkscape:window-maximized="1"
     inkscape:current-layer="layer5"
     inkscape:object-nodes="true"
     inkscape:object-paths="true"
     inkscape:lockguides="true" />
  <defs
     id="defs2" />
	 
  <g
     inkscape:groupmode="layer"
     id="layer2"
     inkscape:label="ambiente"
     style="display:inline">
    <path
       style="fill:#d38d5f;stroke:#502d16;stroke-width:0.7;stroke-linecap:butt;stroke-linejoin:miter;stroke-miterlimit:4;stroke-dasharray:none;stroke-opacity:1"
       d="M 0,176.47708 36.095405,151.47743 320.675,168.80416 319.88125,200.28958 0,200.025 Z"
       id="path58"
       inkscape:label="chao" />
    <path
       style="fill:none;stroke:#c87137;stroke-width:0.264583px;stroke-linecap:butt;stroke-linejoin:miter;stroke-opacity:1"
       d="M 54.716835,152.6112 0,200.025 l 30.16073,0.0249 50.421608,-45.86392 23.917152,1.45621 -42.587909,44.43397 33.337479,0.0276 36.10615,-42.82642 25.00368,1.52236 -31.47608,41.32857 29.63244,0.0245 29.29077,-39.68195 25.62719,1.56032 -25.28246,38.14615 28.57454,0.0236 22.87593,-36.57653 22.83063,1.39005 -19.78091,35.20793 24.86994,0.0206 17.6132,-33.84626 22.20711,1.35209 -16.00565,32.51387 22.10967,0.0183 11.06088,-24.77704"
       id="path1139"
       inkscape:label="chao-tabuas" />
    <path
       style="fill:#e4d8ab;fill-opacity:1;stroke:#000000;stroke-width:0.264583px;stroke-linecap:butt;stroke-linejoin:miter;stroke-opacity:1"
       d="M 36.095405,151.47743 35.546847,-0.37417734 H -0.37417734 L 0,176.47708 Z"
       id="path1506"
       inkscape:label="parede-esq" />
    <path
       style="fill:#e9ddaf;stroke:#000000;stroke-width:0.264583px;stroke-linecap:butt;stroke-linejoin:miter;stroke-opacity:1"
       d="M 36.095405,151.47743 35.546847,-0.37417734 320.01354,0.13229166 320.675,168.80416 Z"
       id="path1541"
       inkscape:label="parede-dir" />
  </g>
  
  <g
     inkscape:groupmode="layer"
     id="layer3"
     inkscape:label="telas"
     style="display:inline">
    <path
       style="fill:#004455;stroke:#000000;stroke-width:0.264583px;stroke-linecap:butt;stroke-linejoin:miter;stroke-opacity:1"
       d="m 104.98067,26.25774 c 0,0 -5.449501,-6.613431 -0.77228,-7.735963 4.67721,-1.122531 34.98557,-0.935443 34.98557,-0.935443 l -1.30962,10.476964 z"
       id="path6839"
       inkscape:label="braco-maior-2" />
    <ellipse
       style="fill:#004455;fill-opacity:1;stroke:#241c1c;stroke-width:0.7;stroke-miterlimit:4;stroke-dasharray:none"
       id="path7292"
       cx="142.84219"
       cy="23.94735"
       rx="8.886714"
       ry="8.4189901"
       inkscape:label="bolinha-braco-2" />
    <ellipse
       style="fill:#006680;fill-opacity:1;stroke:#241c1c;stroke-width:0.7;stroke-miterlimit:4;stroke-dasharray:none"
       id="path7587"
       cx="143.02928"
       cy="24.040892"
       rx="3.0869627"
       ry="2.8998742"
       inkscape:label="bolinha-menor-braco-2" />
    <path
       style="fill:#004455;stroke:#000000;stroke-width:0.264583px;stroke-linecap:butt;stroke-linejoin:miter;stroke-opacity:1"
       d="m 142.41732,32.356713 c 1.07968,17.221782 -5.09424,18.344314 1.26677,17.221782 6.36102,-1.122532 1.9381,-17.634701 1.9381,-17.634701 z"
       id="path7645"
       inkscape:label="braco-2" />
    <path
       style="fill:#164450;stroke:#000000;stroke-width:0.264583px;stroke-linecap:butt;stroke-linejoin:miter;stroke-opacity:1"
       d="m 126.56548,46.585076 42.18849,-1.028986 -1.49671,35.733934 -42.56267,1.028988 z"
       id="path8211"
       inkscape:label="painel-2" />
    <path
       style="fill:#2c5aa0;stroke:#000000;stroke-width:0.264583px;stroke-linecap:butt;stroke-linejoin:miter;stroke-opacity:1"
       d="m 129.83953,49.391408 c 0,0 29.18583,-2.806332 34.05014,0.374176 4.8643,3.180506 0.56126,28.998743 0.56126,28.998743 0,0 -34.6114,4.115951 -36.2952,-0.374179 -1.68379,-4.490127 1.6838,-28.99874 1.6838,-28.99874 z"
       id="path7681"
       inkscape:label="tela-2" />
    <path
       style="fill:#3f6371;fill-opacity:1;stroke:#000000;stroke-width:0.264583px;stroke-linecap:butt;stroke-linejoin:miter;stroke-opacity:1"
       d="m 115.46333,96.019177 13.25367,0.518575 -11.59949,35.733938 -77.267625,-2.61924 9.728613,-36.108117 4.240045,0.15417"
       id="path1658"
       inkscape:label="painel" />
    <path
       style="fill:#002b22;stroke:#000000;stroke-width:0.264583px;stroke-linecap:butt;stroke-linejoin:miter;stroke-opacity:1"
       d="m 168.75397,45.55609 -1.49671,35.733934 4.11595,-2.432153 1.59026,-35.921024 -4.2095,2.619243 -42.18849,1.028986 3.64823,-2.899873 42.72456,-0.723485"
       id="path8347"
       inkscape:label="painel-2-fundo" />
    <path
       style="fill:#164450;stroke:#000000;stroke-width:0.264583px;stroke-linecap:butt;stroke-linejoin:miter;stroke-opacity:1"
       d="m 48.830142,44.527102 5.238483,51.636474 59.120015,1.870885 6.7352,-72.216225 -69.971166,2.057975 -10.476966,10.851142 z"
       id="path727"
       inkscape:label="caixa-principal-2" />
    <path
       style="fill:none;stroke:#000000;stroke-width:0.264583px;stroke-linecap:butt;stroke-linejoin:miter;stroke-opacity:1"
       d="m 39.475708,38.727353 79.653572,-4.389744 0.0535,-0.573723"
       id="path729"
       inkscape:label="caixa-principal-1" />
    <path
       style="fill:#2c5aa0;stroke:#000000;stroke-width:0.264583px;stroke-linecap:butt;stroke-linejoin:miter;stroke-opacity:1"
       d="m 58.745842,40.78533 c 0,0 -6.735191,30.682541 -1.122532,50.888116 0,0 36.295202,9.354434 52.75901,1.496711 0,0 4.8643,-40.78533 0.37417,-52.01065 0,0 -36.669377,-5.61266 -52.010648,-0.374177 z"
       id="path91"
       inkscape:label="tela-principal" />
    <path
       style="fill:#0b2228;stroke:#000000;stroke-width:0.264583px;stroke-linecap:butt;stroke-linejoin:miter;stroke-opacity:1"
       d="m 113.18864,98.034461 3.88948,-3.445921 5.42396,-62.573957 -3.3193,1.749303"
       id="path773"
       inkscape:label="caixa-principal-3" />
    <path
       style="fill:#0b2228;stroke:#000000;stroke-width:0.264583px;stroke-linecap:butt;stroke-linejoin:miter;stroke-opacity:1"
       d="m 119.92384,25.818236 2.57824,6.196347 -3.3728,2.323026 z"
       id="path975"
       inkscape:label="caixa-principal-4" />
    <path
       style="fill:none;stroke:#dbe3e2;stroke-width:0.264583px;stroke-linecap:butt;stroke-linejoin:miter;stroke-opacity:1"
       d="m 69.916145,44.185416 c 0,0 -4.7625,42.8625 -0.661458,45.442187"
       id="path1076"
       inkscape:label="linha-1v" />
    <path
       style="fill:none;stroke:#dbe3e2;stroke-width:0.264583px;stroke-linecap:butt;stroke-linejoin:miter;stroke-opacity:1"
       d="m 83.067368,45.181914 c 0,0 -7.857723,41.720772 -2.15152,44.90128"
       id="path1144"
       inkscape:label="linha-2v" />
    <path
       style="fill:none;stroke:#dbe3e2;stroke-width:0.264583px;stroke-linecap:butt;stroke-linejoin:miter;stroke-opacity:1"
       d="m 95.60231,45.930269 c 0,0 0.654809,40.785327 -1.870887,43.965836"
       id="path1179"
       inkscape:label="linha-3v" />
    <path
       style="fill:none;stroke:#dbe3e2;stroke-width:0.264583px;stroke-linecap:butt;stroke-linejoin:miter;stroke-opacity:1"
       d="m 105.14383,46.397989 c 0,0 2.5257,42.656217 -0.56127,44.246471"
       id="path1247"
       inkscape:label="linha-4v" />
    <path
       style="fill:none;stroke:#dbe2e3;stroke-width:0.264583px;stroke-linecap:butt;stroke-linejoin:miter;stroke-opacity:1"
       d="m 61.271538,53.226726 c 0,0 42.756062,-1.013375 49.204322,1.870887"
       id="path1315"
       inkscape:label="linha-3h" />
    <path
       style="fill:none;stroke:#dbe2e3;stroke-width:0.264583px;stroke-linecap:butt;stroke-linejoin:miter;stroke-opacity:1"
       d="m 61.177995,64.639134 c 48.549505,1.49671 40.138435,-14.721965 48.549505,1.49671"
       id="path1416"
       inkscape:label="linha-2h" />
    <path
       style="fill:none;stroke:#dbe2e3;stroke-width:0.264583px;stroke-linecap:butt;stroke-linejoin:miter;stroke-opacity:1"
       d="m 108.13725,77.174076 c 0,0 -46.959255,4.864303 -45.74318,-0.561266"
       id="path1517"
       inkscape:label="linha-1h" />
    <path
       style="fill:#0b2228;stroke:#000000;stroke-width:0.264583px;stroke-linecap:butt;stroke-linejoin:miter;stroke-opacity:1"
       d="m 126.45777,163.08631 -10.117,4.39618 -76.88299,-1.64886 -5.314098,1.33009 0.08931,3.19735 81.985238,2.67643 14.74384,-8.58656 0.14031,-3.60146 z"
       id="path4897"
       inkscape:label="painel-base" />
    <path
       style="fill:#164450;stroke:#000000;stroke-width:0.264583px;stroke-linecap:butt;stroke-linejoin:miter;stroke-opacity:1"
       d="m 117.11751,132.27169 -0.77674,35.2108 10.117,-4.39618 -0.25152,-24.70923 6.87916,-5.82083 -6.74523,-28.69637 -9.22267,28.41181"
       id="path4932"
       inkscape:label="painel-frente" />
    <path
       style="fill:#216778;stroke:#000000;stroke-width:0.264583px;stroke-linecap:butt;stroke-linejoin:miter;stroke-opacity:1"
       d="m 39.849885,129.65245 -0.392105,36.18118 76.88299,1.64886 0.77674,-35.2108 z"
       id="path4967"
       inkscape:label="painel-lateral" />
    <circle
       style="fill:#d40000;fill-opacity:1;stroke:#000000;stroke-width:0.264583"
       id="path5090"
       cx="112.24948"
       cy="107.61927"
       r="2.3151042"
       inkscape:label="alavanca-2" />
    <circle
       style="display:inline;fill:#d40000;fill-opacity:1;stroke:#000000;stroke-width:0.264583"
       id="path5090-4"
       cx="119.0625"
       cy="110.06667"
       r="2.3151042"
       inkscape:label="alavanca-1" />
    <path
       style="fill:#b3b3b3;stroke:#000000;stroke-width:0.264583px;stroke-linecap:butt;stroke-linejoin:miter;stroke-opacity:1"
       d="m 119.0625,112.38178 -0.19844,5.55624 1.12448,-1.71979 -0.33686,-3.91268 z"
       id="path5270"
       inkscape:label="cabo-1" />
    <path
       style="fill:#b3b3b3;stroke:#000000;stroke-width:0.264583px;stroke-linecap:butt;stroke-linejoin:miter;stroke-opacity:1"
       d="m 111.95509,109.91557 v 6.89796 l 0.88276,-0.84194 -0.2932,-6.05611 z"
       id="path5272"
       inkscape:label="cabo-2" />
    <path
       style="fill:#ddff55;stroke:#000000;stroke-width:0.264583px;stroke-linecap:butt;stroke-linejoin:miter;stroke-opacity:1"
       d="m 99.35104,100.80625 8.86354,0.13229 -3.175,7.67292 -8.598956,-0.13229 z"
       id="path5406"
       inkscape:label="botao-1" />
    <path
       style="fill:#ff9955;fill-opacity:1;stroke:#000000;stroke-width:0.264583"
       id="path5628"
       sodipodi:type="arc"
       sodipodi:cx="84.269791"
       sodipodi:cy="104.51041"
       sodipodi:rx="4.1010418"
       sodipodi:ry="3.96875"
       sodipodi:start="0"
       sodipodi:end="5.7676363"
       sodipodi:arc-type="slice"
       d="m 88.370832,104.51041 a 4.1010418,3.96875 0 0 1 -3.573932,3.93583 4.1010418,3.96875 0 0 1 -4.492652,-2.92408 4.1010418,3.96875 0 0 1 2.419045,-4.6875 4.1010418,3.96875 0 0 1 5.114495,1.7191 l -3.567997,1.95665 z"
       inkscape:label="botao-2" />
    <path
       style="fill:#005500;stroke:#2b1100;stroke-width:0.264583px;stroke-linecap:butt;stroke-linejoin:miter;stroke-opacity:1"
       d="m 55.297916,111.91875 47.889584,1.05833 -4.233335,13.75834 -48.154166,-1.5875 z"
       id="path5776"
       inkscape:label="placa-verde" />
    <path
       sodipodi:type="spiral"
       style="fill:none;fill-rule:evenodd;stroke:#ffffff"
       id="path13469"
       sodipodi:cx="520.07703"
       sodipodi:cy="206.47517"
       sodipodi:expansion="50"
       sodipodi:revolution="40"
       sodipodi:radius="83.12896"
       sodipodi:argument="-250.62546"
       sodipodi:t0="0.83384502"
       d="m 520.06783,206.4772 c -0.003,-0.006 6.8e-4,-0.0127 0.006,-0.0154 0.009,-0.004 0.0184,0.001 0.0223,0.009 0.006,0.0124 -0.001,0.0266 -0.0132,0.0322 -0.0178,0.009 -0.0384,-0.002 -0.0464,-0.0191 -0.0122,-0.0257 0.003,-0.0552 0.0276,-0.0668 0.0369,-0.0175 0.0792,0.005 0.0957,0.0396 0.0249,0.0528 -0.007,0.11337 -0.0569,0.13689 -0.0754,0.0354 -0.16179,-0.01 -0.19527,-0.0814 -0.0503,-0.10732 0.0144,-0.23031 0.1162,-0.27783 0.15249,-0.0711 0.32707,0.0207 0.39434,0.16547 0.10045,0.21613 -0.0298,0.46331 -0.23503,0.55833 -0.30561,0.14149 -0.65476,-0.0427 -0.78865,-0.33303 -0.19882,-0.43108 0.0611,-0.92309 0.47075,-1.11131 0.60666,-0.27875 1.29836,0.0872 1.56236,0.66384 0.38992,0.85176 -0.12398,1.82198 -0.93393,2.19139 -1.19316,0.5442 -2.55095,-0.17589 -3.06673,-1.31086 -0.75784,-1.66764 0.24891,-3.56356 1.83574,-4.28208 2.3256,-1.05305 4.96708,0.35134 5.96586,2.56497 1.46009,3.23605 -0.49469,6.90825 -3.57593,8.29359 -4.49316,2.02016 -9.5873,-0.69482 -11.50472,-4.97439 -2.78918,-6.2253 0.97356,-13.27697 6.90479,-15.92522 8.60699,-3.84296 18.34793,1.36087 21.99798,9.56382 5.28402,11.87507 -1.89784,25.30305 -13.21892,30.32352 -16.35035,7.25076 -34.8231,-2.64058 -41.71453,-18.23286 -9.92968,-22.46649 3.66568,-47.82803 25.0969,-57.26874 30.80858,-13.57155 65.5585,5.07737 78.46595,34.47492 9.66061,22.00264 7.41094,47.71257 -4.12753,68.55656"
       transform="matrix(0.26458333,0,0,0.26458333,4.8737514,10.480517)"
       inkscape:label="espiral" />
    <path
       style="fill:#2c5aa0;stroke:#ffffff;stroke-width:0.264583px;stroke-linecap:butt;stroke-linejoin:miter;stroke-opacity:1"
       d="m 141.43681,69.509788 -2.19355,1.158489 c 0,0 0.0785,2.006939 0.87153,1.60313 0.793,-0.403807 2.08919,-1.15216 2.08919,-1.15216 l 0.38676,0.85687 c 0,0 0.50191,0.682351 1.66241,-0.581753 l -0.52074,-0.995543 7.18834,-3.82613 c 0.0423,-0.0498 2.02726,-0.11227 3.12735,0.0847 3.70314,0.663011 3.12722,-2.267999 3.16863,-2.369493 0.4658,-1.141767 -1.02843,-4.141967 -2.15946,-4.208023 -2.58013,-0.150681 0.5775,-0.428113 -2.9106,0.384258 -0.40791,0.09499 -0.87813,1.183869 -1.50577,3.19168 -0.56442,1.805668 -7.74581,5.012118 -7.74581,5.012118 l -0.69698,-1.487859 c 0,0 -1.62696,-0.572901 -1.43651,0.505323 0.19045,1.078214 0.67528,1.824439 0.67528,1.824439 z"
       id="path9654"
       sodipodi:nodetypes="ccscccccsssssccscc"
       inkscape:label="elemento-1" />
    <path
       style="display:inline;fill:#2c5aa0;stroke:#ffffff;stroke-width:0.0933759px;stroke-linecap:butt;stroke-linejoin:miter;stroke-opacity:1"
       d="m 145.17532,57.625532 0.75683,0.421367 c 0,0 0.63861,-0.383895 0.36988,-0.538933 -0.26872,-0.155035 -0.73667,-0.392539 -0.73667,-0.392539 l 0.21141,-0.265353 c 0,0 0.13473,-0.266995 -0.47731,-0.372669 l -0.23325,0.328797 -2.4898,-1.375484 c -0.0235,-0.0032 -0.38799,-0.561987 -0.51472,-0.913379 -0.42631,-1.182974 -1.27929,-0.489737 -1.31945,-0.483358 -0.45183,0.07182 -1.16778,1.041125 -0.99314,1.37783 0.39839,0.768109 -0.23926,-0.08877 0.62953,0.766699 0.10165,0.100031 0.53701,0.03902 1.29835,-0.142234 0.68468,-0.163018 2.9719,1.322041 2.9719,1.322041 l -0.3627,0.468058 c 0,0 0.0959,0.570387 0.4133,0.321553 0.31739,-0.248827 0.47584,-0.522424 0.47584,-0.522424 z"
       id="path9654-6"
       sodipodi:nodetypes="ccscccccsssssccscc"
       inkscape:label="elemento-2" />
  </g>
  
  <g
     inkscape:groupmode="layer"
     id="layer5"
     inkscape:label="elementos" />
  <g
     inkscape:groupmode="layer"
     id="layer4"
     inkscape:label="maquina"
     style="display:inline">
    <path
       style="fill:#5d6c53;stroke:#000000;stroke-width:0.264583px;stroke-linecap:butt;stroke-linejoin:miter;stroke-opacity:1"
       d="m 177.79036,159.99811 c 0,0 -19.18853,11.39227 -8.87398,20.64458 10.31456,9.25231 99.20334,17.42013 125.10431,6.03976 25.90093,-11.38037 3.10882,-24.00828 3.10882,-24.00828"
       id="path6221"
       inkscape:label="estrutura-inf" />
    <path
       style="fill:#7c916f;stroke:#000000;stroke-width:0.264583px;stroke-linecap:butt;stroke-linejoin:miter;stroke-opacity:1"
       d="m 181.24044,26.983883 c 13.33177,-19.1261592 26.80427,-27.05094241 28.30097,-27.04827765 1.49671,0.0026648 81.94457,0.14589541 81.94457,0.14589541 0,0 17.22644,19.28109624 11.96626,26.31922624"
       id="path5699"
       inkscape:label="estrutura-sup" />
    <path
       style="fill:#676c53;stroke:#000000;stroke-width:0.264583px;stroke-linecap:butt;stroke-linejoin:miter;stroke-opacity:1"
       d="m 304.99663,178.85874 5.69035,2.57928 2.77812,-7.07761 -7.08948,-0.44163 c 0,0 0.19775,3.02074 -1.37899,4.93996 z"
       id="path6458"
       inkscape:label="placa-4" />
    <path
       style="fill:#676c53;stroke:#000000;stroke-width:0.264583px;stroke-linecap:butt;stroke-linejoin:miter;stroke-opacity:1"
       d="m 257.56991,192.14413 -0.39491,4.50743 10.71562,-0.7276 -0.94594,-4.20285 z"
       id="path6423"
       inkscape:label="placa-3" />
    <path
       style="fill:#676c53;stroke:#000000;stroke-width:0.264583px;stroke-linecap:butt;stroke-linejoin:miter;stroke-opacity:1"
       d="m 192.56163,187.48696 -3.73945,5.64208 12.26115,1.40585 1.19655,-5.40308 z"
       id="path6388"
       inkscape:label="placa-2" />
    <path
       style="fill:#5d6c53;stroke:#000000;stroke-width:0.264583px;stroke-linecap:butt;stroke-linejoin:miter;stroke-opacity:1"
       d="m 168.29169,168.33555 -7.22659,-1.58191 -1.65364,7.9375 6.49878,0.65968 c 0,0 0.94699,-5.23614 2.33601,-6.95284"
       id="path6526"
       inkscape:label="placa-1" />
    <path
       style="fill:#006c70;fill-opacity:1;stroke:#000000;stroke-width:0.264583px;stroke-linecap:butt;stroke-linejoin:miter;stroke-opacity:1"
       d="m 229.17369,146.19345 c 0,0 19.00547,-80.04762 4.71797,-101.214284 -14.2875,-21.166667 34.925,-5.820833 34.925,-5.820833 0,0 10.4969,123.109367 -3.48281,108.915097"
       id="path93"
       inkscape:label="estrutura" />
    <path
       style="fill:#eeffaa;fill-opacity:1;stroke:#2b1100"
       id="path6186"
       sodipodi:type="arc"
       sodipodi:cx="236.94881"
       sodipodi:cy="163.18172"
       sodipodi:rx="60.207146"
       sodipodi:ry="17.131721"
       sodipodi:start="0"
       sodipodi:end="6.2535549"
       sodipodi:arc-type="arc"
       d="m 297.15595,163.18172 a 60.207146,17.131721 0 0 1 -59.76116,17.13125 60.207146,17.131721 0 0 1 -60.64652,-16.87745 60.207146,17.131721 0 0 1 58.86268,-17.38129 60.207146,17.131721 0 0 1 61.51857,16.61994"
       sodipodi:open="true"
       inkscape:label="circulo" />
    <path
       style="fill:#3d5c60;fill-opacity:1;stroke:#000000;stroke-width:0.264583px;stroke-linecap:butt;stroke-linejoin:miter;stroke-opacity:1"
       d="m 236.01995,146.05203 4.10835,-49.046558 5.53732,-46.073184 18.78541,-0.396875 5.02709,43.788541 -1.85433,54.116326 c 0,0 -18.5471,-2.85482 -31.60384,-2.38825 z"
       id="path3394" />
    <ellipse
       style="fill:#eeffaa;fill-opacity:1;stroke:#241c1c;stroke-width:0.7;stroke-miterlimit:4;stroke-dasharray:none"
       id="path5422"
       cx="242.4669"
       cy="27.876211"
       rx="61.365082"
       ry="13.283295"
       inkscape:label="circulo-sup" />
    <path
       style="fill:#ddff55;stroke:#000000;stroke-width:0.264583px;stroke-linecap:butt;stroke-linejoin:miter;stroke-opacity:1"
       d="m 172.67369,170.22629 c -0.31419,-0.0661 -1.04178,-0.30354 -1.04178,-0.30354 0,0 0.0496,-1.15166 -0.42996,-1.10205 -0.47956,0.0496 -1.27331,-0.0331 -1.55443,0.49609 -0.28112,0.52917 0.0496,1.4056 0.21498,1.43867 0.16536,0.0331 0.78964,0.49464 1.04268,0.15184 0.25303,-0.3428 1.3551,0.0797 1.3551,0.0797 z"
       id="path6233"
       inkscape:label="luz-1" />
    <path
       style="fill:#ddff55;stroke:#000000;stroke-width:0.277998px;stroke-linecap:butt;stroke-linejoin:miter;stroke-opacity:1"
       d="m 185.00858,178.905 c -0.32547,0.048 -1.13673,0.0762 -1.13673,0.0762 0,0 -0.73251,-1.13072 -1.12802,-0.91267 -0.39553,0.21813 -1.16147,0.41967 -1.05601,1.03089 0.10534,0.61121 0.99244,1.34102 1.16272,1.3143 0.17036,-0.0265 1.0401,0.19796 1.03529,-0.22304 -0.005,-0.42109 1.26598,-0.40379 1.26598,-0.40379 z"
       id="path6290"
       inkscape:label="luz-2" />
    <path
       style="fill:#ddff55;stroke:#000000;stroke-width:0.277998px;stroke-linecap:butt;stroke-linejoin:miter;stroke-opacity:1"
       d="m 202.39626,182.21525 c -0.31133,0.18701 -1.08438,0.55694 -1.08438,0.55694 0,0 -0.66666,-0.89436 -1.04917,-0.49715 -0.38258,0.39734 -1.11732,0.93216 -1.03351,1.53727 0.0839,0.60507 0.90842,1.00895 1.07132,0.90922 0.16285,-0.0994 0.98491,-0.22531 0.9916,-0.6707 0.007,-0.4453 1.21646,-0.95892 1.21646,-0.95892 z"
       id="path6290-0"
       inkscape:label="luz-3" />
    <path
       style="fill:#ddff55;stroke:#000000;stroke-width:0.277998px;stroke-linecap:butt;stroke-linejoin:miter;stroke-opacity:1"
       d="m 224.95702,184.75216 c -0.18883,0.28377 -0.70494,0.90231 -0.70494,0.90231 0,0 -1.04362,-0.56681 -1.19331,-0.0665 -0.14984,0.5003 -0.54978,1.25448 -0.17576,1.7723 0.3741,0.51807 1.31856,0.58208 1.41657,0.4321 0.0974,-0.15032 0.77902,-0.56483 0.56542,-0.97116 -0.21343,-0.4063 0.62645,-1.31487 0.62645,-1.31487 z"
       id="path6290-1"
       inkscape:label="luz-4" />
    <path
       style="fill:#ddff55;stroke:#000000;stroke-width:0.277998px;stroke-linecap:butt;stroke-linejoin:miter;stroke-opacity:1"
       d="m 249.46367,184.96996 c 0.27723,0.20641 0.9828,0.62722 0.9828,0.62722 0,0 0.84014,-0.82846 1.14853,-0.41007 0.30836,0.4184 0.94421,0.99801 0.7446,1.58576 -0.19937,0.58781 -1.10487,0.92285 -1.24939,0.81294 -0.14447,-0.1099 -0.94617,-0.29415 -0.86807,-0.73181 0.0782,-0.43756 -1.03873,-1.03161 -1.03873,-1.03161 z"
       id="path6290-7"
       inkscape:label="luz-5" />
    <path
       style="fill:#ddff55;stroke:#000000;stroke-width:0.277998px;stroke-linecap:butt;stroke-linejoin:miter;stroke-opacity:1"
       d="m 297.66681,17.917551 c 0.34493,0.02212 1.16586,-0.0092 1.16586,-0.0092 0,0 0.25336,-1.152373 0.73988,-0.969438 0.48648,0.182953 1.33544,0.322736 1.48815,0.924383 0.15291,0.601566 -0.42398,1.37571 -0.60508,1.36226 -0.18099,-0.01351 -0.95372,0.268625 -1.12658,-0.140973 -0.17274,-0.409542 -1.433,-0.299453 -1.433,-0.299453 z"
       id="path6290-7-2"
       inkscape:label="luz-5" />
    <path
       style="fill:#ddff55;stroke:#000000;stroke-width:0.277998px;stroke-linecap:butt;stroke-linejoin:miter;stroke-opacity:1"
       d="m 276.28454,13.263289 c 0.33112,-0.005 1.13805,-0.104592 1.13805,-0.104592 0,0 0.50612,-1.22499 0.93901,-1.073429 0.43286,0.151592 1.22861,0.228551 1.24206,0.844896 0.0136,0.616283 -0.72261,1.472307 -0.896,1.472977 -0.17334,5.84e-4 -0.98972,0.358415 -1.06602,-0.05557 -0.0761,-0.41399 -1.32892,-0.196254 -1.32892,-0.196254 z"
       id="path6290-7-2-9"
       inkscape:label="luz-5" />
    <path
       style="fill:#ddff55;stroke:#000000;stroke-width:0.277998px;stroke-linecap:butt;stroke-linejoin:miter;stroke-opacity:1"
       d="m 250.30347,11.299048 c 0.3385,-0.0898 1.15579,-0.392042 1.15579,-0.392042 0,0 0.4113,-1.2998955 0.86761,-1.2662649 0.45629,0.033663 1.27753,-0.09711 1.34501,0.4881039 0.0676,0.585125 -0.61134,1.591675 -0.78876,1.636822 -0.17738,0.0451 -0.98184,0.59639 -1.09603,0.220562 -0.11397,-0.375866 -1.37738,0.153676 -1.37738,0.153676 z"
       id="path6290-7-2-9-6"
       inkscape:label="luz-5" />
    <path
       style="fill:#ddff55;stroke:#000000;stroke-width:0.277998px;stroke-linecap:butt;stroke-linejoin:miter;stroke-opacity:1"
       d="m 226.85924,11.183444 c -0.27723,0.03206 -0.9828,0.0091 -0.9828,0.0091 0,0 -0.84014,-1.3568195 -1.14853,-1.132374 -0.30836,0.224476 -0.94421,0.404202 -0.7446,1.117485 0.19937,0.713194 1.10487,1.617697 1.24939,1.598675 0.14447,-0.01906 0.94617,0.300923 0.86807,-0.185886 -0.0782,-0.486741 1.03873,-0.378362 1.03873,-0.378362 z"
       id="path6290-7-2-9-9"
       inkscape:label="luz-5" />
    <path
       style="fill:#ddff55;stroke:#000000;stroke-width:0.277998px;stroke-linecap:butt;stroke-linejoin:miter;stroke-opacity:1"
       d="m 205.2957,13.629131 c -0.27723,0.04659 -0.9828,0.06065 -0.9828,0.06065 0,0 -0.84014,-1.31279 -1.14853,-1.072182 -0.30836,0.240636 -0.94421,0.453686 -0.7446,1.156508 0.19937,0.702745 1.10487,1.559793 1.24939,1.533197 0.14447,-0.02663 0.94617,0.251337 0.86807,-0.23138 -0.0782,-0.482642 1.03873,-0.432799 1.03873,-0.432799 z"
       id="path6290-7-2-9-0"
       inkscape:label="luz-5" />
    <path
       style="fill:#ddff55;stroke:#000000;stroke-width:0.277998px;stroke-linecap:butt;stroke-linejoin:miter;stroke-opacity:1"
       d="m 189.24517,17.78395 c -0.27723,0.09018 -0.9828,0.21517 -0.9828,0.21517 0,0 -0.84014,-1.1807 -1.14853,-0.891606 -0.30836,0.289117 -0.94421,0.602138 -0.7446,1.273577 0.19937,0.671399 1.10487,1.386081 1.24939,1.336763 0.14447,-0.04934 0.94617,0.102577 0.86807,-0.367861 -0.0782,-0.470347 1.03873,-0.596111 1.03873,-0.596111 z"
       id="path6290-7-2-9-68"
       inkscape:label="luz-5" />
    <path
       style="fill:#ddff55;stroke:#000000;stroke-width:0.277998px;stroke-linecap:butt;stroke-linejoin:miter;stroke-opacity:1"
       d="m 275.7987,182.36078 c 0.31408,0.14426 1.09173,0.40918 1.09173,0.40918 0,0 0.64954,-0.98504 1.03817,-0.6399 0.38862,0.34514 1.13108,0.77988 1.05803,1.3963 -0.0728,0.61641 -0.88886,1.13239 -1.05307,1.05493 -0.16417,-0.0775 -0.98665,-0.091 -1.00125,-0.53533 -0.0145,-0.44426 -1.23051,-0.79311 -1.23051,-0.79311 z"
       id="path6290-7-4"
       inkscape:label="luz-6" />
    <path
       style="fill:#ddff55;stroke:#000000;stroke-width:0.277998px;stroke-linecap:butt;stroke-linejoin:miter;stroke-opacity:1"
       d="m 294.0511,175.1708 c 0.33891,-0.0677 1.12372,-0.31066 1.12372,-0.31066 0,0 -0.0535,-1.1787 0.46378,-1.12792 0.51728,0.0508 1.37346,-0.0339 1.67669,0.50773 0.30324,0.5416 -0.0535,1.4386 -0.23188,1.47245 -0.17836,0.0338 -0.85176,0.50624 -1.12469,0.1554 -0.27294,-0.35085 -1.46168,0.0816 -1.46168,0.0816 z"
       id="path6290-7-0"
       inkscape:label="luz-7" />
  </g>
  
  <g
     inkscape:label="cadeira"
     id="layer1"
     style="display:inline"
     inkscape:groupmode="layer">
    <path
       style="display:inline;fill:#ff5555;stroke:#550000;stroke-width:0.264583px;stroke-linecap:butt;stroke-linejoin:miter;stroke-opacity:1"
       d="m 57.062044,91.11218 c 33.60962,16.5358 15.663958,47.56418 45.930266,60.33609 9.49279,4.00581 -2.34439,15.32388 -19.913147,13.12256 v 0 0 0"
       id="path44"
       inkscape:label="cadeira-fundo"
       sodipodi:nodetypes="cscccc" />
    <path
       style="fill:#666666;stroke:#000000;stroke-width:0.264583px;stroke-linecap:butt;stroke-linejoin:miter;stroke-opacity:1"
       d="m 40.161654,171.07349 c -11.35,11.89923 -22.575319,10.96378 -11.35,11.89923 11.22532,0.93544 48.455965,-0.74836 48.455965,-0.74836 0,0 -13.001154,-3.75463 -13.118314,-11.47211 -0.11716,-7.71747 -0.03545,0.005 -0.03545,0.005 z"
       id="path2804"
       inkscape:label="suporte-fundo" />
    <path
       style="display:inline;fill:#c83737;stroke:#550000;stroke-width:0.264583px;stroke-linecap:butt;stroke-linejoin:miter;stroke-opacity:1"
       d="m 17.462503,159.27917 c 7.40915,-92.074731 41.60507,-67.446923 47.625,-63.500004 13.66126,8.956914 17.99166,68.791664 17.99166,68.791664 z"
       id="path916"
       sodipodi:nodetypes="cscc"
       inkscape:label="cadeira-topo"
       inkscape:highlight-color="2801795327" />
    <path
       style="display:inline;fill:#666666;stroke:#000000;stroke-width:0.264583px;stroke-linecap:butt;stroke-linejoin:miter;stroke-opacity:1"
       d="m 17.462505,159.27917 c 18.256247,24.34166 72.527143,5.54594 72.527143,5.54594 0,0 -18.81673,-18.51053 -41.570897,-15.60011 -22.754166,2.91041 -30.956246,10.05417 -30.956246,10.05417 z"
       id="path547"
       inkscape:label="suporte" />
    <ellipse
       style="opacity:1;fill:none;stroke:#1a1a1a;stroke-width:1.5;stroke-miterlimit:4;stroke-dasharray:none;stroke-dashoffset:0"
       id="path1043"
       inkscape:label="roda"
       ry="7.0445313"
       rx="4.8440328"
       cy="142.99001"
       cx="-90.067024"
       transform="rotate(-49)" />
    <ellipse
       style="fill:#1a1a1a;stroke:#1a1a1a;stroke-width:1.61408;stroke-miterlimit:4;stroke-dasharray:none;stroke-dashoffset:0"
       id="path1043-3"
       inkscape:label="mini-roda"
       ry="1.4030092"
       rx="0.91262925"
       cy="145.01617"
       cx="-92.49913"
       transform="matrix(0.67022334,-0.74215947,0.76692516,0.64173655,0,0)" />
    <path
       style="fill:#1a1a1a;stroke:#1a1a1a;stroke-width:0.605379px;stroke-linecap:butt;stroke-linejoin:miter;stroke-opacity:1"
       d="m 53.660621,159.053 c -11.859398,6.86101 0,0 0,0 z"
       id="path2553"
       inkscape:label="retinha-1" />
    <path
       style="fill:#1a1a1a;stroke:#1a1a1a;stroke-width:0.776045px;stroke-linecap:butt;stroke-linejoin:miter;stroke-opacity:1"
       d="m 48.780282,162.51746 c -10.57727,-12.64146 0,0 0,0 z"
       id="path2553-2"
       inkscape:label="retinha-2" />
    <path
       style="fill:#1a1a1a;stroke:#1a1a1a;stroke-width:0.471471px;stroke-linecap:butt;stroke-linejoin:miter;stroke-opacity:1"
       d="m 48.780282,162.51746 c 4.293874,11.49374 0,0 0,0 z"
       id="path2553-6"
       inkscape:label="retinha-3" />
    <path
       style="fill:#333333;stroke:#000000;stroke-width:0.264583px;stroke-linecap:butt;stroke-linejoin:miter;stroke-opacity:1"
       d="m 77.267619,182.22436 c -8.999947,-12.0921 -3.87918,-12.8796 -8.516471,-12.17336 -4.637294,0.70625 -4.637294,0.70625 -4.637294,0.70625 0,0 -0.316622,7.72533 13.153765,11.46711 z"
       id="path3006"
       inkscape:label="canto-suporte" />
    <path
       style="fill:none;stroke:#808080;stroke-width:1.6;stroke-linecap:butt;stroke-linejoin:miter;stroke-miterlimit:4;stroke-dasharray:none;stroke-opacity:1"
       d="m 44.346319,111.54902 c 0,0 -6.973924,-8.95683 -4.063507,-9.08913 2.910417,-0.13229 7.816397,-1.19153 8.532812,3.77032 0.716415,4.96184 0.0019,6.05846 0.0019,6.05846 0,0 -2.68527,0.61035 -4.471205,-0.73965 z"
       id="path1752"
       inkscape:label="extintor-cabo"
       sodipodi:nodetypes="cssccc" />
    <path
       style="fill:#666666;stroke:#000000;stroke-width:0.264583px;stroke-linecap:butt;stroke-linejoin:miter;stroke-opacity:1"
       d="m 54.901041,110.75521 1.389062,-1.48229 -1.134271,-1.35715 -6.338469,4.3729 c 1.91681,-0.0876 3.876315,-0.33793 6.083678,-1.53346 z"
       id="path1375"
       inkscape:label="extintor-2"
       sodipodi:nodetypes="ccccc" />
    <path
       style="fill:#4d4d4d;stroke:#000000;stroke-width:0.264583px;stroke-linecap:butt;stroke-linejoin:miter;stroke-opacity:1"
       d="m 48.817363,112.28867 6.017532,-9.23346 c 0,0 1.322917,-3.175003 2.38125,0.59531 1.058333,3.77031 -8.398782,8.63815 -8.398782,8.63815 z"
       id="path1373"
       inkscape:label="extintor-1" />
    <path
       style="fill:#aa0000;stroke:#aa0000;stroke-width:0.264583px;stroke-linecap:butt;stroke-linejoin:miter;stroke-opacity:1"
       d="m 42.068749,110.35833 -0.661458,23.9448 c -1.882964,-0.89752 5.03639,5.79346 13.49375,0.79374 1.506139,-0.89038 0.385021,-23.99023 0,-24.34166 -4.233334,2.29305 -9.657292,1.89617 -12.832292,-0.39688 z"
       id="path251"
       sodipodi:nodetypes="ccscc"
       inkscape:label="extintor" />
    <path
       style="fill:#ffe680;stroke:#aa0000;stroke-width:0.264583px;stroke-linecap:butt;stroke-linejoin:miter;stroke-opacity:1"
       d="m 44.594446,116.53226 -0.474369,15.05808 c 0.667453,0.20732 2.459354,3.50788 8.255267,0.13893 1.512662,-0.87925 0.104388,-14.54225 -0.280633,-14.89368 -3.611802,1.18125 -3.458765,0.37741 -7.500265,-0.30333 z"
       id="path3705"
       sodipodi:nodetypes="ccscc"
       inkscape:label="extintor-adesivo" />
    <path
       style="fill:#454837;stroke:#000000;stroke-width:0.264583px;stroke-linecap:butt;stroke-linejoin:miter;stroke-opacity:1"
       d="m 30.754195,119.48918 11.057853,0.16171 c 0,0 5.692796,5.16927 13.698675,-0.17877 l 15.487175,0.0331 -0.755003,3.47249 -14.630409,-0.15728 c 0,0 -8.350424,4.1405 -13.880626,-0.26673 l -10.817974,-0.0701 z"
       id="path4918"
       inkscape:label="extintor-faixa"
       sodipodi:nodetypes="ccccccccc" />
    <path
       style="fill:none;stroke:#b3b3b3;stroke-width:1;stroke-linecap:butt;stroke-linejoin:miter;stroke-miterlimit:4;stroke-dasharray:none;stroke-opacity:1"
       d="m 59.58774,118.00618 v 5.89329 c 0,0 -0.04677,0.79513 0.841899,0.70158 0.888672,-0.0935 4.911077,-0.0935 4.911077,-0.0935 0,0 0.555421,0.0702 0.502801,-0.37418 -0.05262,-0.44434 0.0047,-5.55039 0.0047,-5.55039 0,0 0.08268,-0.84336 -0.694532,-0.69453 -0.777213,0.14883 -4.911328,0.0827 -4.911328,0.0827 0,0 -0.680767,-0.029 -0.654576,0.0351 z"
       id="path5464"
       inkscape:label="extintor-fivela-1" />
    <path
       style="fill:#cccccc;stroke:#b3b3b3;stroke-width:1;stroke-linecap:butt;stroke-linejoin:miter;stroke-miterlimit:4;stroke-dasharray:none;stroke-opacity:1"
       d="m 65.492727,120.80081 -2.139828,-0.0117 z"
       id="path5923"
       inkscape:label="extintor-fivela-2" />
  </g>
</svg>
